<svg width="814" height="252" viewBox="0 0 814 252" fill="none" xmlns="http://www.w3.org/2000/svg">
<path d="M260.857 191.152V121.628H242.378V99.6726H260.857V87.7802C260.857 76.9246 264.151 68.3865 270.737 62.1659C277.324 55.9453 285.679 52.835 295.803 52.835C302.023 52.835 307.329 53.5058 311.72 54.8475V76.9856C308.793 75.8879 305.377 75.339 301.474 75.339C295.986 75.339 292.021 76.5587 289.582 78.9982C287.142 81.3156 285.923 85.2798 285.923 90.8905V99.6726H311.72V121.628H285.923V191.152H260.857ZM326.54 191.152V53.9327H351.605V191.152H326.54Z" fill="black"/>
<path d="M449.976 179.443C440.584 188.591 429.241 193.165 415.945 193.165C402.65 193.165 391.307 188.591 381.915 179.443C372.523 170.173 367.827 158.829 367.827 145.412C367.827 132.117 372.523 120.835 381.915 111.565C391.307 102.295 402.65 97.66 415.945 97.66C429.241 97.66 440.584 102.295 449.976 111.565C459.368 120.835 464.064 132.117 464.064 145.412C464.064 158.829 459.368 170.173 449.976 179.443ZM415.945 169.746C422.41 169.746 427.777 167.49 432.046 162.977C436.437 158.342 438.632 152.487 438.632 145.412C438.632 138.338 436.437 132.544 432.046 128.031C427.777 123.396 422.41 121.079 415.945 121.079C409.359 121.079 403.87 123.396 399.479 128.031C395.21 132.544 393.076 138.338 393.076 145.412C393.076 152.487 395.21 158.342 399.479 162.977C403.87 167.49 409.359 169.746 415.945 169.746Z" fill="black"/>
<path d="M557.366 191.152L540.168 139.192L523.153 191.152H498.27L467.899 99.6726H494.611L511.992 158.22L530.471 99.6726H549.682L568.344 158.22L585.542 99.6726H612.437L582.248 191.152H557.366Z" fill="black"/>
<path d="M693.624 193.165C682.768 193.165 674.291 189.506 668.192 182.187C662.215 174.869 659.227 165.05 659.227 152.731V99.6726H684.293V148.523C684.293 163.038 689.476 170.295 699.844 170.295C705.699 170.295 710.273 168.099 713.566 163.708C716.981 159.317 718.689 152.853 718.689 144.315V99.6726H743.754V191.152H718.689V180.724C713.078 189.018 704.723 193.165 693.624 193.165Z" fill="black"/>
<path d="M778.497 84.6699C774.228 84.6699 770.507 83.1452 767.336 80.0959C764.165 76.9246 762.579 73.1435 762.579 68.7524C762.579 64.3614 764.165 60.6412 767.336 57.5919C770.507 54.4206 774.228 52.835 778.497 52.835C783.01 52.835 786.791 54.4206 789.84 57.5919C793.012 60.6412 794.597 64.3614 794.597 68.7524C794.597 73.1435 793.012 76.9246 789.84 80.0959C786.791 83.1452 783.01 84.6699 778.497 84.6699ZM766.055 191.152V99.6726H791.121V191.152H766.055Z" fill="black"/>
<path d="M11.1275 185.496C12.8363 185.496 14.6354 184.957 16.434 183.698V87.4601C16.434 84.2224 17.0637 82.9633 19.9419 81.434L103.318 33.4054C103.588 27.4692 99.8099 23.7817 94.6834 23.7817C92.3448 23.7817 89.8262 24.4114 87.1281 26.0301L11.7572 69.382C2.94287 74.5085 1.86377 76.1275 1.86377 86.381V172.455C1.86377 180.19 5.55123 185.496 11.1275 185.496ZM47.1041 206.273C48.7231 206.273 50.5218 205.733 52.4106 204.474V108.236C52.4106 104.729 52.8603 103.829 55.8283 102.211L139.204 54.0918C139.474 48.2458 135.786 44.4681 130.57 44.4681C128.321 44.4681 125.713 45.1877 123.105 46.6267L47.5538 90.0684C38.7395 95.1051 37.7502 96.994 37.7502 107.067V193.231C37.7502 200.966 41.6176 206.273 47.1041 206.273ZM85.5992 228.218C88.7471 228.218 92.5244 226.959 97.0216 224.441L167.536 183.967C175.811 179.2 179.049 174.253 179.049 164.18L178.869 82.6931C178.869 71.9001 175 66.4137 168.255 66.4137C165.288 66.4137 161.51 67.5833 157.283 70.0113L86.5885 110.755C78.1338 115.702 75.1658 120.738 75.1658 130.542V212.029C75.1658 222.462 78.8533 228.218 85.5992 228.218Z" fill="black"/>
</svg>
